<svg width="45" height="45" viewBox="0 0 45 45" fill="none" xmlns="http://www.w3.org/2000/svg">
<path d="M22.9731 15.558C21.8835 14.5561 20.4573 14 18.9771 14C18.1937 14.0008 17.4181 14.1566 16.6951 14.4583C15.972 14.76 15.3158 15.2017 14.7641 15.758C12.4111 18.121 12.4121 21.817 14.7661 24.17L22.0981 31.502C22.2681 31.801 22.5961 31.994 22.9731 31.994C23.1279 31.9925 23.2802 31.9547 23.4178 31.8837C23.5553 31.8126 23.6743 31.7103 23.7651 31.585L31.1801 24.17C33.5341 21.816 33.5341 18.121 31.1781 15.754C30.6267 15.1987 29.971 14.7579 29.2487 14.4569C28.5264 14.1559 27.7517 14.0006 26.9691 14C25.489 14.0002 24.0628 14.5563 22.9731 15.558ZM29.7641 17.168C31.3271 18.739 31.3281 21.193 29.7661 22.756L22.9731 29.549L16.1801 22.756C14.6181 21.193 14.6191 18.739 16.1781 17.172C16.9381 16.416 17.9321 16 18.9771 16C20.0221 16 21.0121 16.416 21.7661 17.17L22.2661 17.67C22.3589 17.7629 22.4691 17.8367 22.5904 17.887C22.7117 17.9373 22.8418 17.9632 22.9731 17.9632C23.1045 17.9632 23.2345 17.9373 23.3558 17.887C23.4771 17.8367 23.5873 17.7629 23.6801 17.67L24.1801 17.17C25.6921 15.661 28.2541 15.665 29.7641 17.168Z" fill="#000201"/>
<rect x="0.5" y="0.5" width="44" height="44" stroke="#D9D9D9"/>
</svg>
