<svg width="128" height="16" viewBox="0 0 128 16" fill="none" xmlns="http://www.w3.org/2000/svg">
<g clip-path="url(#clip0_185_1604)">
<path d="M15.9582 6.13752C15.8535 5.81353 15.5661 5.58343 15.2262 5.55279L10.6081 5.13346L8.78205 0.859324C8.64741 0.546085 8.34076 0.343321 8.00005 0.343321C7.65935 0.343321 7.3527 0.546085 7.21805 0.860056L5.39196 5.13346L0.773208 5.55279C0.433845 5.58416 0.147218 5.81353 0.041869 6.13752C-0.06348 6.4615 0.0338122 6.81685 0.290532 7.04086L3.78121 10.1022L2.75189 14.6364C2.67657 14.9697 2.80597 15.3144 3.08259 15.5143C3.23127 15.6217 3.40522 15.6764 3.58064 15.6764C3.73189 15.6764 3.88192 15.6356 4.01657 15.5551L8.00005 13.1743L11.9821 15.5551C12.2735 15.7304 12.6408 15.7144 12.9168 15.5143C13.1935 15.3137 13.3228 14.969 13.2475 14.6364L12.2182 10.1022L15.7088 7.04147C15.9656 6.81685 16.0636 6.46211 15.9582 6.13752Z" fill="#FF9533"/>
</g>
<g clip-path="url(#clip1_185_1604)">
<path d="M43.9581 6.13745C43.8534 5.81347 43.566 5.58337 43.2261 5.55272L38.608 5.1334L36.7819 0.859263C36.6473 0.546024 36.3407 0.34326 35.9999 0.34326C35.6592 0.34326 35.3526 0.546024 35.2179 0.859995L33.3919 5.1334L28.7731 5.55272C28.4337 5.5841 28.1471 5.81347 28.0418 6.13745C27.9364 6.46144 28.0337 6.81679 28.2904 7.04079L31.7811 10.1021L30.7518 14.6363C30.6765 14.9697 30.8059 15.3143 31.0825 15.5142C31.2312 15.6217 31.4051 15.6764 31.5805 15.6764C31.7318 15.6764 31.8818 15.6356 32.0165 15.555L35.9999 13.1742L39.982 15.555C40.2734 15.7303 40.6407 15.7143 40.9167 15.5142C41.1934 15.3137 41.3227 14.9689 41.2474 14.6363L40.2181 10.1021L43.7087 7.0414C43.9655 6.81679 44.0635 6.46205 43.9581 6.13745Z" fill="#FF9533"/>
</g>
<g clip-path="url(#clip2_185_1604)">
<path d="M71.958 6.13745C71.8533 5.81347 71.5659 5.58337 71.226 5.55272L66.6079 5.1334L64.7818 0.859263C64.6472 0.546024 64.3405 0.34326 63.9998 0.34326C63.6591 0.34326 63.3525 0.546024 63.2178 0.859995L61.3917 5.1334L56.773 5.55272C56.4336 5.5841 56.147 5.81347 56.0417 6.13745C55.9363 6.46144 56.0336 6.81679 56.2903 7.04079L59.781 10.1021L58.7517 14.6363C58.6764 14.9697 58.8058 15.3143 59.0824 15.5142C59.2311 15.6217 59.405 15.6764 59.5804 15.6764C59.7317 15.6764 59.8817 15.6356 60.0164 15.555L63.9998 13.1742L67.9819 15.555C68.2732 15.7303 68.6406 15.7143 68.9166 15.5142C69.1933 15.3137 69.3226 14.9689 69.2473 14.6363L68.2179 10.1021L71.7086 7.0414C71.9653 6.81679 72.0634 6.46205 71.958 6.13745Z" fill="#FF9533"/>
</g>
<g clip-path="url(#clip3_185_1604)">
<path d="M99.9579 6.13745C99.8532 5.81347 99.5658 5.58337 99.2258 5.55272L94.6078 5.1334L92.7817 0.859263C92.6471 0.546024 92.3404 0.34326 91.9997 0.34326C91.659 0.34326 91.3524 0.546024 91.2177 0.859995L89.3916 5.1334L84.7729 5.55272C84.4335 5.5841 84.1469 5.81347 84.0415 6.13745C83.9362 6.46144 84.0335 6.81679 84.2902 7.04079L87.7809 10.1021L86.7516 14.6363C86.6763 14.9697 86.8056 15.3143 87.0823 15.5142C87.2309 15.6217 87.4049 15.6764 87.5803 15.6764C87.7316 15.6764 87.8816 15.6356 88.0162 15.555L91.9997 13.1742L95.9818 15.555C96.2731 15.7303 96.6405 15.7143 96.9165 15.5142C97.1932 15.3137 97.3225 14.9689 97.2472 14.6363L96.2178 10.1021L99.7085 7.0414C99.9652 6.81679 100.063 6.46205 99.9579 6.13745Z" fill="#FF9533"/>
</g>
<g clip-path="url(#clip4_185_1604)">
<path d="M127.958 6.13745C127.853 5.81347 127.566 5.58337 127.226 5.55272L122.608 5.1334L120.782 0.859263C120.647 0.546024 120.34 0.34326 120 0.34326C119.659 0.34326 119.352 0.546024 119.218 0.859995L117.392 5.1334L112.773 5.55272C112.433 5.5841 112.147 5.81347 112.041 6.13745C111.936 6.46144 112.033 6.81679 112.29 7.04079L115.781 10.1021L114.751 14.6363C114.676 14.9697 114.806 15.3143 115.082 15.5142C115.231 15.6217 115.405 15.6764 115.58 15.6764C115.731 15.6764 115.881 15.6356 116.016 15.555L120 13.1742L123.982 15.555C124.273 15.7303 124.64 15.7143 124.916 15.5142C125.193 15.3137 125.322 14.9689 125.247 14.6363L124.218 10.1021L127.708 7.0414C127.965 6.81679 128.063 6.46205 127.958 6.13745Z" fill="#FF9533"/>
</g>
<defs>
<clipPath id="clip0_185_1604">
<rect width="16" height="16" fill="white"/>
</clipPath>
<clipPath id="clip1_185_1604">
<rect width="16" height="16" fill="white" transform="translate(27.9999)"/>
</clipPath>
<clipPath id="clip2_185_1604">
<rect width="16" height="16" fill="white" transform="translate(55.9998)"/>
</clipPath>
<clipPath id="clip3_185_1604">
<rect width="16" height="16" fill="white" transform="translate(83.9997)"/>
</clipPath>
<clipPath id="clip4_185_1604">
<rect width="16" height="16" fill="white" transform="translate(112)"/>
</clipPath>
</defs>
</svg>
