<svg width="30" height="30" viewBox="0 0 30 30" fill="none" xmlns="http://www.w3.org/2000/svg">
<path d="M22.1337 15.3663C22.0177 15.2501 21.8799 15.1579 21.7283 15.095C21.5767 15.0321 21.4141 14.9998 21.2499 14.9998C21.0858 14.9998 20.9232 15.0321 20.7716 15.095C20.6199 15.1579 20.4822 15.2501 20.3662 15.3663L18.3737 17.3588C17.4499 17.0838 15.7262 16.4588 14.6337 15.3663C13.5412 14.2738 12.9162 12.55 12.6412 11.6263L14.6337 9.63376C14.7499 9.51777 14.842 9.38002 14.9049 9.22837C14.9678 9.07673 15.0002 8.91417 15.0002 8.75001C15.0002 8.58584 14.9678 8.42328 14.9049 8.27164C14.842 8.12 14.7499 7.98224 14.6337 7.86626L9.63368 2.86626C9.51769 2.75008 9.37994 2.6579 9.2283 2.59501C9.07665 2.53213 8.9141 2.49976 8.74993 2.49976C8.58576 2.49976 8.42321 2.53213 8.27156 2.59501C8.11992 2.6579 7.98216 2.75008 7.86618 2.86626L4.47618 6.25626C4.00118 6.73126 3.73368 7.38376 3.74368 8.05001C3.77243 9.83001 4.24368 16.0125 9.11618 20.885C13.9887 25.7575 20.1712 26.2275 21.9524 26.2575H21.9874C22.6474 26.2575 23.2712 25.9975 23.7437 25.525L27.1337 22.135C27.2499 22.019 27.342 21.8813 27.4049 21.7296C27.4678 21.578 27.5002 21.4154 27.5002 21.2513C27.5002 21.0871 27.4678 20.9245 27.4049 20.7729C27.342 20.6212 27.2499 20.4835 27.1337 20.3675L22.1337 15.3663ZM21.9749 23.7563C20.4149 23.73 15.0774 23.3113 10.8837 19.1163C6.67618 14.9088 6.26868 9.55251 6.24368 8.02376L8.74993 5.51751L11.9824 8.75001L10.3662 10.3663C10.2193 10.5131 10.1112 10.6942 10.0519 10.8932C9.99251 11.0923 9.98368 11.3029 10.0262 11.5063C10.0562 11.65 10.7899 15.0588 12.8649 17.1338C14.9399 19.2088 18.3487 19.9425 18.4924 19.9725C18.6956 20.0162 18.9065 20.0081 19.1057 19.9489C19.305 19.8897 19.4861 19.7813 19.6324 19.6338L21.2499 18.0175L24.4824 21.25L21.9749 23.7563Z" fill="#23292E"/>
</svg>
