<svg width="141" height="25" viewBox="0 0 141 25" fill="none" xmlns="http://www.w3.org/2000/svg">
<path d="M139.548 7.18497C139.548 6.64441 139.169 6.28404 138.544 6.28404L137.316 6.30656L137.338 9.05442H138.008V8.10844H138.41L138.99 9.05442H139.772L139.079 7.99582C139.223 7.91566 139.342 7.79804 139.424 7.65535C139.507 7.51266 139.55 7.35016 139.548 7.18497ZM138.41 7.54535H137.985V6.84712H138.477C138.565 6.83735 138.654 6.86232 138.725 6.91684C138.795 6.97137 138.842 7.05126 138.856 7.13993V7.16246C138.854 7.21813 138.841 7.27283 138.817 7.32302C138.793 7.37321 138.759 7.41777 138.717 7.45385C138.675 7.48992 138.626 7.51671 138.573 7.53247C138.52 7.54823 138.464 7.55262 138.41 7.54535ZM39.3638 19.8882C38.2251 19.8882 37.4436 18.9873 37.4436 17.6584V11.5996H42.1324V7.32012H37.4548L37.4101 2.41001H32.2301L32.2747 18.762C32.2747 22.073 34.4629 24.3253 37.6781 24.3253C39.375 24.3253 40.9826 24.0776 42.2552 23.4919V19.3251C41.3515 19.7482 40.3587 19.9415 39.3638 19.8882ZM51.7334 7.04984C46.9106 7.04984 43.2042 10.8338 43.2042 15.8565C43.2042 20.8342 46.9106 24.3028 52.0236 24.3028C54.9039 24.3028 57.6056 23.2667 59.2578 21.127L55.2835 19.3026C54.4797 20.0459 53.2517 20.3387 52.1576 20.3387C50.3714 20.3387 48.5852 19.4152 48.3396 17.5232H60.1956C60.3738 16.8472 60.4638 16.1506 60.4635 15.4511C60.4635 10.2932 56.7348 7.04984 51.7445 7.04984H51.7334ZM48.3396 14.2123C48.4958 11.9599 50.1034 10.9239 51.8673 10.9239C53.8545 10.9239 55.3505 12.05 55.3505 13.9871V14.2123H48.3396ZM27.3068 19.8882C26.1681 19.8882 25.3866 18.9873 25.3866 17.6584V11.5996H30.0755V7.32012H25.3978L25.3531 2.41001H20.1731L20.2178 18.762C20.2178 22.073 22.4059 24.3253 25.6211 24.3253C27.318 24.3253 28.9256 24.0776 30.1983 23.4919V19.3251C29.2952 19.7502 28.3019 19.9437 27.3068 19.8882ZM9.10972 7.04984C4.6665 7.04984 0 10.0004 0 15.9466C0 20.9018 3.3045 24.3704 7.47979 24.3704C9.86886 24.3704 11.6774 23.4019 12.8608 21.6901L13.0171 24.0775H18.0296V16.1493C18.0296 10.113 13.6199 7.04984 9.10972 7.04984ZM9.10972 19.7981C6.85462 19.7981 5.22469 18.1088 5.22469 15.7214C5.22469 13.3339 6.83229 11.6446 9.10972 11.6446C11.2085 11.6446 12.9501 13.4915 12.9501 15.7214C12.9501 17.9512 11.2085 19.7981 9.10972 19.7981ZM138.298 5.04525C136.668 5.06777 135.619 6.12638 135.641 7.70302C135.663 9.27966 136.735 10.3157 138.365 10.2932C139.95 10.2707 141.022 9.21209 141 7.61292C140.977 6.01376 139.906 5.02272 138.298 5.04525ZM138.365 9.84274C137.092 9.86527 136.222 9.00938 136.222 7.70302C136.222 6.39666 137.048 5.51824 138.32 5.49572C139.593 5.47319 140.441 6.32908 140.464 7.65797C140.464 8.9418 139.615 9.82022 138.376 9.84274H138.365ZM112.978 7.34264L109.361 17.9287L105.7 7.34264H100.073L106.816 24.055H111.862L118.605 7.34264H112.978ZM126.397 7.04984C121.575 7.04984 117.868 10.8338 117.868 15.8565C117.868 20.8342 121.575 24.3028 126.688 24.3028C129.568 24.3028 132.27 23.2667 133.922 21.127L129.947 19.3026C129.144 20.0459 127.916 20.3387 126.822 20.3387C125.035 20.3387 123.249 19.4152 123.004 17.5232H134.86C135.038 16.8472 135.128 16.1506 135.127 15.4511C135.127 10.2932 131.399 7.04984 126.397 7.04984ZM130.014 14.2123H123.004C123.16 11.9599 124.767 10.9239 126.531 10.9239C128.518 10.9239 130.014 12.05 130.014 13.9871V14.2123ZM96.0762 0C94.2454 0 92.8611 1.23879 92.8611 2.9731C92.8611 4.7074 94.2454 5.99123 96.0762 5.99123C97.9071 5.99123 99.2915 4.72992 99.2915 2.9731C99.2915 1.21627 97.9295 0 96.0762 0ZM72.5651 7.02731C71.5183 7.01025 70.4849 7.2668 69.5654 7.772C68.6459 8.2772 67.8717 9.01385 67.3181 9.91031L67.1395 7.34264H62.1381V24.055H67.3181V15.2934C67.4298 13.1987 69.1043 11.5996 70.9352 11.5996C72.9894 11.5996 73.9271 13.1537 73.9271 15.1132V24.0325H79.0848V14.3024C79.0848 10.068 76.5283 7.02731 72.5651 7.02731ZM88.3732 19.8882C87.2345 19.8882 86.453 18.9873 86.453 17.6584V11.5996H91.1418V7.32012H86.453L86.4083 2.41001H81.2283L81.273 18.762C81.273 22.073 83.4611 24.3253 86.6763 24.3253C88.3732 24.3253 89.9808 24.0776 91.2535 23.4919V19.3251C90.3537 19.7484 89.3645 19.9418 88.3732 19.8882ZM93.4639 7.34264V24.055H98.6886V7.34264C97.914 7.86043 97.0054 8.13657 96.0762 8.13657C95.1471 8.13657 94.2385 7.86043 93.4639 7.34264Z" fill="#F8F8F8"/>
</svg>
