<svg width="128" height="16" viewBox="0 0 128 16" fill="none" xmlns="http://www.w3.org/2000/svg">
<g clip-path="url(#clip0_185_1638)">
<path d="M15.9582 6.1375C15.8535 5.81352 15.5661 5.58342 15.2261 5.55278L10.6081 5.13345L8.78204 0.859322C8.64739 0.546084 8.34074 0.343321 8.00004 0.343321C7.65933 0.343321 7.35269 0.546084 7.21804 0.860055L5.39195 5.13345L0.773207 5.55278C0.433845 5.58415 0.147218 5.81352 0.0418689 6.1375C-0.0634799 6.46148 0.0338121 6.81684 0.290531 7.04084L3.7812 10.1022L2.75188 14.6363C2.67657 14.9697 2.80596 15.3143 3.08258 15.5143C3.23126 15.6217 3.40522 15.6764 3.58064 15.6764C3.73188 15.6764 3.88191 15.6356 4.01656 15.555L8.00004 13.1743L11.9821 15.555C12.2734 15.7303 12.6408 15.7144 12.9168 15.5143C13.1935 15.3137 13.3228 14.969 13.2475 14.6363L12.2181 10.1022L15.7088 7.04145C15.9655 6.81684 16.0636 6.4621 15.9582 6.1375Z" fill="#FF9533"/>
</g>
<g clip-path="url(#clip1_185_1638)">
<path d="M43.958 6.13741C43.8533 5.81343 43.5659 5.58332 43.226 5.55268L38.608 5.13336L36.7819 0.859231C36.6472 0.545992 36.3406 0.343229 35.9999 0.343229C35.6592 0.343229 35.3525 0.545992 35.2179 0.859963L33.3918 5.13336L28.773 5.55268C28.4337 5.58406 28.1471 5.81343 28.0417 6.13741C27.9364 6.46139 28.0337 6.81675 28.2904 7.04075L31.781 10.1021L30.7517 14.6362C30.6764 14.9696 30.8058 15.3142 31.0824 15.5142C31.2311 15.6216 31.4051 15.6763 31.5805 15.6763C31.7317 15.6763 31.8818 15.6355 32.0164 15.555L35.9999 13.1742L39.9819 15.555C40.2733 15.7303 40.6406 15.7143 40.9166 15.5142C41.1933 15.3136 41.3226 14.9689 41.2473 14.6362L40.218 10.1021L43.7087 7.04136C43.9654 6.81675 44.0634 6.462 43.958 6.13741Z" fill="#FF9533"/>
</g>
<g clip-path="url(#clip2_185_1638)">
<path d="M71.9579 6.13741C71.8531 5.81343 71.5658 5.58332 71.2258 5.55268L66.6078 5.13336L64.7817 0.859231C64.6471 0.545992 64.3404 0.343229 63.9997 0.343229C63.659 0.343229 63.3524 0.545992 63.2177 0.859963L61.3916 5.13336L56.7729 5.55268C56.4335 5.58406 56.1469 5.81343 56.0415 6.13741C55.9362 6.46139 56.0335 6.81675 56.2902 7.04075L59.7809 10.1021L58.7516 14.6362C58.6762 14.9696 58.8056 15.3142 59.0823 15.5142C59.2309 15.6216 59.4049 15.6763 59.5803 15.6763C59.7316 15.6763 59.8816 15.6355 60.0162 15.555L63.9997 13.1742L67.9817 15.555C68.2731 15.7303 68.6404 15.7143 68.9164 15.5142C69.1932 15.3136 69.3225 14.9689 69.2471 14.6362L68.2178 10.1021L71.7085 7.04136C71.9652 6.81675 72.0632 6.462 71.9579 6.13741Z" fill="#D9D9D9"/>
</g>
<g clip-path="url(#clip3_185_1638)">
<path d="M99.9577 6.13741C99.853 5.81343 99.5656 5.58332 99.2257 5.55268L94.6076 5.13336L92.7816 0.859231C92.6469 0.545992 92.3403 0.343229 91.9996 0.343229C91.6589 0.343229 91.3522 0.545992 91.2176 0.859963L89.3915 5.13336L84.7727 5.55268C84.4334 5.58406 84.1467 5.81343 84.0414 6.13741C83.936 6.46139 84.0333 6.81675 84.2901 7.04075L87.7807 10.1021L86.7514 14.6362C86.6761 14.9696 86.8055 15.3142 87.0821 15.5142C87.2308 15.6216 87.4047 15.6763 87.5802 15.6763C87.7314 15.6763 87.8814 15.6355 88.0161 15.555L91.9996 13.1742L95.9816 15.555C96.273 15.7303 96.6403 15.7143 96.9163 15.5142C97.193 15.3136 97.3223 14.9689 97.247 14.6362L96.2177 10.1021L99.7083 7.04136C99.965 6.81675 100.063 6.462 99.9577 6.13741Z" fill="#D9D9D9"/>
</g>
<g clip-path="url(#clip4_185_1638)">
<path d="M127.958 6.13741C127.853 5.81343 127.565 5.58332 127.225 5.55268L122.607 5.13336L120.781 0.859231C120.647 0.545992 120.34 0.343229 119.999 0.343229C119.659 0.343229 119.352 0.545992 119.217 0.859963L117.391 5.13336L112.773 5.55268C112.433 5.58406 112.147 5.81343 112.041 6.13741C111.936 6.46139 112.033 6.81675 112.29 7.04075L115.781 10.1021L114.751 14.6362C114.676 14.9696 114.805 15.3142 115.082 15.5142C115.231 15.6216 115.405 15.6763 115.58 15.6763C115.731 15.6763 115.881 15.6355 116.016 15.555L119.999 13.1742L123.981 15.555C124.273 15.7303 124.64 15.7143 124.916 15.5142C125.193 15.3136 125.322 14.9689 125.247 14.6362L124.217 10.1021L127.708 7.04136C127.965 6.81675 128.063 6.462 127.958 6.13741Z" fill="#D9D9D9"/>
</g>
<defs>
<clipPath id="clip0_185_1638">
<rect width="16" height="16" fill="white"/>
</clipPath>
<clipPath id="clip1_185_1638">
<rect width="16" height="16" fill="white" transform="translate(27.9998)"/>
</clipPath>
<clipPath id="clip2_185_1638">
<rect width="16" height="16" fill="white" transform="translate(55.9997)"/>
</clipPath>
<clipPath id="clip3_185_1638">
<rect width="16" height="16" fill="white" transform="translate(83.9995)"/>
</clipPath>
<clipPath id="clip4_185_1638">
<rect width="16" height="16" fill="white" transform="translate(111.999)"/>
</clipPath>
</defs>
</svg>
