<svg width="220" height="32" viewBox="0 0 220 32" fill="none" xmlns="http://www.w3.org/2000/svg">
<path fill-rule="evenodd" clip-rule="evenodd" d="M8.16613 16.86L20.4981 4.37701C21.336 3.5289 22.4508 3.06255 23.6391 3.06255C24.8265 3.06255 25.9413 3.52846 26.7783 4.37657L27.7391 5.34913L29.6611 3.40357L28.7003 2.43101C27.3506 1.06473 25.5532 0.312276 23.6382 0.312276C21.7241 0.312719 19.9263 1.06517 18.5765 2.43189L6.24454 14.9144L8.16613 16.86Z" fill="#F8F8F8"/>
<path fill-rule="evenodd" clip-rule="evenodd" d="M24.6655 8.52339L22.7343 6.58071L10.3445 19.0452C8.60456 20.7955 5.77359 20.796 4.03413 19.0461C2.29423 17.2958 2.29423 14.4474 4.03413 12.6971L14.7254 1.94224L12.7943 0L2.10344 10.7548C-0.701148 13.5762 -0.701148 18.1674 2.10344 20.9883C3.45958 22.3526 5.26542 23.1043 7.18864 23.1043C9.11229 23.1043 10.919 22.3521 12.2751 20.9879L24.6655 8.52339Z" fill="#F8F8F8"/>
<path fill-rule="evenodd" clip-rule="evenodd" d="M36.9239 10.8578C35.5682 9.49353 33.7623 8.74218 31.8382 8.74218C29.9146 8.74263 28.1078 9.49398 26.7517 10.8587L14.3622 23.323L16.2924 25.2657L28.6828 12.801C30.4232 11.0506 33.2537 11.0511 34.9932 12.8005C35.8346 13.647 36.2979 14.7738 36.2979 15.9744C36.2979 17.1755 35.8346 18.3028 34.9932 19.1492L24.3023 29.9043L26.2334 31.8465L36.9239 21.0919C39.7289 18.2705 39.7289 13.6792 36.9239 10.8578Z" fill="#F8F8F8"/>
<path fill-rule="evenodd" clip-rule="evenodd" d="M30.8618 14.9866L18.5301 27.4695C16.798 29.222 13.9808 29.2229 12.2496 27.47L11.2888 26.4974L9.36681 28.443L10.3276 29.4155C11.6773 30.7818 13.4746 31.5343 15.3901 31.5343C17.3042 31.5338 19.1015 30.7814 20.4516 29.4146L32.7834 16.9321L30.8618 14.9866Z" fill="#F8F8F8"/>
<path fill-rule="evenodd" clip-rule="evenodd" d="M50.4157 19.1736C50.5748 19.9701 50.9476 20.5937 51.5332 21.043C52.1183 21.4932 52.8883 21.7178 53.8432 21.7178C54.7828 21.7178 55.5091 21.4968 56.0226 21.0542C56.5361 20.612 56.7926 20.0294 56.7926 19.3064C56.7926 18.9525 56.724 18.6539 56.5868 18.4105C56.4491 18.1672 56.2577 17.9608 56.0121 17.791C55.7656 17.622 55.4623 17.4776 55.1009 17.3599C54.7395 17.2418 54.3344 17.1166 53.886 16.9837L52.7153 16.6521C52.0209 16.4605 51.399 16.2282 50.8497 15.955C50.2999 15.6822 49.8302 15.3613 49.4399 14.9927C49.0497 14.6241 48.7529 14.2002 48.5506 13.7206C48.3483 13.2414 48.2469 12.6842 48.2469 12.0504C48.2469 11.3867 48.3771 10.7747 48.6375 10.214C48.8976 9.65417 49.2664 9.17412 49.7436 8.77609C50.2208 8.37805 50.799 8.0647 51.479 7.8356C52.1581 7.60783 52.9242 7.49328 53.7777 7.49328C55.3828 7.49328 56.6549 7.88017 57.5954 8.6544C58.535 9.42908 59.0843 10.465 59.2438 11.7629L56.641 11.984C56.4814 11.3203 56.1637 10.8042 55.6865 10.4355C55.2093 10.0669 54.5442 9.88239 53.6911 9.88239C52.8958 9.88239 52.2739 10.0705 51.826 10.4467C51.3772 10.8229 51.153 11.306 51.153 11.8957C51.153 12.2349 51.2185 12.5184 51.3488 12.7471C51.479 12.9762 51.6665 13.175 51.9125 13.3444C52.1581 13.5142 52.4583 13.6653 52.8123 13.7977C53.1667 13.9305 53.5679 14.0714 54.0163 14.2184L55.1228 14.5724C55.8163 14.7934 56.4421 15.0257 56.9984 15.269C57.5552 15.5124 58.0289 15.8039 58.4191 16.1431C58.8098 16.4823 59.1101 16.8879 59.3194 17.3599C59.5292 17.832 59.634 18.4145 59.634 19.1077C59.634 19.8453 59.4894 20.5202 59.2005 21.1317C58.9108 21.7441 58.5066 22.2639 57.9856 22.6913C57.4652 23.1192 56.8472 23.4513 56.131 23.6866C55.4151 23.9224 54.6237 24.041 53.7563 24.041C52.1511 24.041 50.8134 23.6577 49.7436 22.8906C48.6734 22.1235 48.0157 20.9659 47.7696 19.417L50.4157 19.1736Z" fill="#F8F8F8"/>
<path fill-rule="evenodd" clip-rule="evenodd" d="M70.8305 10.1837C70.0503 10.1837 69.3527 10.3305 68.7384 10.6233C68.1238 10.9166 67.6035 11.323 67.1776 11.843C66.7507 12.3634 66.4253 12.9793 66.2012 13.6891C65.9775 14.4003 65.8657 15.1732 65.8657 16.0082C65.8657 16.8437 65.981 17.6201 66.2125 18.3384C66.4432 19.0563 66.7726 19.6788 67.199 20.2067C67.6249 20.7338 68.1456 21.1478 68.7603 21.4486C69.3741 21.7485 70.0717 21.8985 70.8524 21.8985C71.633 21.8985 72.3303 21.756 72.9449 21.4703C73.5587 21.1846 74.0794 20.7853 74.5058 20.272C74.9322 19.7595 75.2611 19.1401 75.4922 18.4152C75.7233 17.6898 75.8391 16.8947 75.8391 16.0304C75.8391 15.1803 75.7233 14.3964 75.4922 13.6785C75.2611 12.9611 74.9322 12.3452 74.5058 11.8324C74.0794 11.3199 73.5552 10.9166 72.9336 10.6233C72.3124 10.3305 71.6112 10.1837 70.8305 10.1837ZM70.8524 7.80555C72.0232 7.80555 73.093 8.00742 74.0615 8.41117C75.0296 8.81491 75.8535 9.37971 76.5333 10.1065C77.2122 10.8336 77.7394 11.7032 78.116 12.7162C78.4917 13.7291 78.6795 14.8374 78.6795 16.0411C78.6795 17.2896 78.4808 18.4161 78.0837 19.4214C77.6853 20.4272 77.1187 21.2968 76.3812 22.0307L78.4629 24.5193V25.2899H75.8177L74.3647 23.4846C73.8588 23.7193 73.3163 23.9026 72.7387 24.0348C72.1603 24.167 71.5387 24.2331 70.8742 24.2331C69.6742 24.2331 68.5938 24.0308 67.6327 23.6275C66.6712 23.2237 65.8543 22.6585 65.1824 21.9317C64.5101 21.205 63.9898 20.3394 63.6215 19.3331C63.2528 18.3278 63.0685 17.2306 63.0685 16.0411C63.0685 14.8374 63.2528 13.7331 63.6215 12.7268C63.9898 11.7219 64.5136 10.8554 65.1933 10.1286C65.8722 9.4019 66.6926 8.83311 67.6542 8.42182C68.6157 8.01142 69.6816 7.80555 70.8524 7.80555Z" fill="#F8F8F8"/>
<path fill-rule="evenodd" clip-rule="evenodd" d="M89.2951 21.7628C90.4044 21.7628 91.2685 21.4129 91.888 20.7123C92.507 20.0117 92.817 18.939 92.817 17.4936V7.80555H95.5396V17.56C95.5396 18.7103 95.3955 19.6944 95.1073 20.5131C94.8187 21.3313 94.4086 22.0025 93.8757 22.5262C93.3429 23.0499 92.6873 23.4331 91.9098 23.6765C91.1318 23.9198 90.2603 24.041 89.2951 24.041C88.3152 24.041 87.4402 23.9198 86.6701 23.6765C85.8991 23.4331 85.2474 23.0499 84.7146 22.5262C84.1817 22.0025 83.7712 21.3313 83.4826 20.5131C83.1944 19.6944 83.0507 18.7103 83.0507 17.56V7.80555H85.7733V17.4936C85.7733 18.939 86.0828 20.0117 86.7023 20.7123C87.3218 21.4129 88.1859 21.7628 89.2951 21.7628Z" fill="#F8F8F8"/>
<path fill-rule="evenodd" clip-rule="evenodd" d="M103.339 16.9233H108.549L107.692 14.4447C107.354 13.474 107.084 12.6837 106.879 12.0752C106.673 11.4663 106.49 10.9301 106.329 10.4662H105.648C105.56 10.7124 105.471 10.959 105.384 11.2052C105.296 11.4519 105.197 11.7274 105.087 12.0314C104.977 12.3359 104.856 12.6837 104.724 13.0753C104.592 13.4661 104.431 13.923 104.241 14.4447L103.339 16.9233ZM98.3495 22.9678L103.955 8.11771H108.11L113.648 22.9678V23.7288H110.923L109.34 19.2714H102.504L100.922 23.7288H98.3495V22.9678Z" fill="#F8F8F8"/>
<path fill-rule="evenodd" clip-rule="evenodd" d="M119.782 15.2492H122.155C123.201 15.2492 124.024 15.0587 124.626 14.6784C125.228 14.2977 125.53 13.6765 125.53 12.8139C125.53 11.9378 125.225 11.3275 124.615 10.9828C124.006 10.6384 123.186 10.4658 122.155 10.4658H119.782V15.2492ZM128.948 23.7288H126.313L121.546 17.5974H119.782V23.7288H117.083V8.11771H122.155C122.953 8.11771 123.712 8.17203 124.43 8.28067C125.149 8.38932 125.798 8.63946 126.379 9.03067C127.612 9.842 128.23 11.0669 128.23 12.704C128.23 13.4146 128.124 14.034 127.913 14.5632C127.703 15.092 127.423 15.541 127.075 15.9107C126.727 16.2805 126.324 16.581 125.868 16.8123C125.41 17.0445 124.935 17.2184 124.441 17.3341L128.948 22.9674V23.7288Z" fill="#F8F8F8"/>
<path fill-rule="evenodd" clip-rule="evenodd" d="M132.381 8.11771H142.532V10.5091H135.067V14.5968H142.008V16.9448H135.067V21.3369H142.685V23.7288H132.381V8.11771Z" fill="#F8F8F8"/>
<path fill-rule="evenodd" clip-rule="evenodd" d="M148.766 19.1736C148.925 19.9701 149.297 20.5937 149.883 21.043C150.469 21.4932 151.239 21.7178 152.193 21.7178C153.133 21.7178 153.859 21.4968 154.373 21.0542C154.886 20.612 155.143 20.0294 155.143 19.3064C155.143 18.9525 155.074 18.6539 154.936 18.4105C154.799 18.1672 154.607 17.9608 154.362 17.791C154.116 17.622 153.812 17.4776 153.451 17.3599C153.089 17.2418 152.684 17.1166 152.236 16.9837L151.065 16.6521C150.371 16.4605 149.749 16.2282 149.2 15.955C148.65 15.6822 148.18 15.3613 147.79 14.9927C147.4 14.6241 147.103 14.2002 146.901 13.7206C146.698 13.2414 146.597 12.6842 146.597 12.0504C146.597 11.3867 146.727 10.7747 146.988 10.214C147.248 9.65417 147.616 9.17412 148.094 8.77609C148.571 8.37805 149.149 8.0647 149.829 7.8356C150.508 7.60783 151.274 7.49328 152.127 7.49328C153.733 7.49328 155.005 7.88017 155.945 8.6544C156.885 9.42908 157.434 10.465 157.593 11.7629L154.991 11.984C154.832 11.3203 154.513 10.8042 154.037 10.4355C153.56 10.0669 152.894 9.88239 152.041 9.88239C151.246 9.88239 150.624 10.0705 150.176 10.4467C149.728 10.8229 149.503 11.306 149.503 11.8957C149.503 12.2349 149.568 12.5184 149.699 12.7471C149.829 12.9762 150.016 13.175 150.262 13.3444C150.508 13.5142 150.808 13.6653 151.163 13.7977C151.517 13.9305 151.918 14.0714 152.366 14.2184L153.473 14.5724C154.166 14.7934 154.792 15.0257 155.349 15.269C155.905 15.5124 156.379 15.8039 156.769 16.1431C157.159 16.4823 157.46 16.8879 157.669 17.3599C157.879 17.832 157.984 18.4145 157.984 19.1077C157.984 19.8453 157.839 20.5202 157.55 21.1317C157.26 21.7441 156.856 22.2639 156.335 22.6913C155.815 23.1192 155.197 23.4513 154.481 23.6866C153.765 23.9224 152.974 24.041 152.106 24.041C150.501 24.041 149.163 23.6577 148.094 22.8906C147.023 22.1235 146.366 20.9659 146.12 19.417L148.766 19.1736Z" fill="#F8F8F8"/>
<path fill-rule="evenodd" clip-rule="evenodd" d="M164.809 15.3796H167.465C167.952 15.3796 168.398 15.3402 168.804 15.2609C169.209 15.182 169.563 15.0493 169.866 14.8622C170.169 14.6756 170.404 14.4242 170.574 14.1079C170.744 13.792 170.828 13.4039 170.828 12.9439C170.828 12.4699 170.744 12.0717 170.574 11.7484C170.404 11.4251 170.172 11.1702 169.877 10.9831C169.582 10.7961 169.231 10.6633 168.826 10.5845C168.42 10.5056 167.981 10.4658 167.509 10.4658H164.809V15.3796ZM162.043 8.11771H167.841C168.918 8.11771 169.822 8.2408 170.552 8.48744C171.282 8.73363 171.872 9.07401 172.323 9.50945C172.772 9.94402 173.097 10.4548 173.296 11.0423C173.495 11.6288 173.595 12.2632 173.595 12.9444C173.595 13.7565 173.458 14.4627 173.185 15.0642C172.913 15.6656 172.518 16.162 172.002 16.5536C171.485 16.9448 170.858 17.2383 170.12 17.4341C169.382 17.63 168.549 17.7276 167.62 17.7276H164.809V23.7288H162.043V8.11771Z" fill="#F8F8F8"/>
<path fill-rule="evenodd" clip-rule="evenodd" d="M179.21 16.9233H184.419L183.562 14.4447C183.224 13.474 182.953 12.6837 182.748 12.0752C182.543 11.4663 182.36 10.9301 182.199 10.4662H181.517C181.43 10.7124 181.342 10.959 181.253 11.2052C181.166 11.4519 181.067 11.7274 180.957 12.0314C180.847 12.3359 180.726 12.6837 180.594 13.0753C180.462 13.4661 180.301 13.923 180.111 14.4447L179.21 16.9233ZM174.22 22.9678L179.825 8.11771H183.979L189.518 22.9678V23.7288H186.793L185.211 19.2714H178.374L176.791 23.7288H174.22V22.9678Z" fill="#F8F8F8"/>
<path fill-rule="evenodd" clip-rule="evenodd" d="M206.066 19.6013C205.818 20.2108 205.493 20.7844 205.092 21.3224C204.69 21.8604 204.204 22.3318 203.635 22.7343C203.066 23.1368 202.405 23.4552 201.653 23.6893C200.901 23.9235 200.065 24.041 199.145 24.041C197.977 24.041 196.914 23.8376 195.958 23.4311C195.002 23.0255 194.185 22.4629 193.509 21.7451C192.833 21.0264 192.311 20.1709 191.943 19.1769C191.575 18.1832 191.392 17.1059 191.392 15.9448C191.392 14.7845 191.575 13.7071 191.943 12.7131C192.311 11.7195 192.836 10.8596 193.52 10.1339C194.203 9.40908 195.024 8.83904 195.98 8.42598C196.936 8.01205 198.006 7.80552 199.189 7.80552C200.911 7.80552 202.354 8.20498 203.514 9.0026C204.675 9.80021 205.497 10.8596 205.979 12.1799L203.197 12.7236C202.817 11.926 202.288 11.2981 201.609 10.8412C200.93 10.3843 200.108 10.1558 199.145 10.1558C198.371 10.1558 197.681 10.304 197.075 10.6004C196.469 10.8969 195.958 11.3051 195.542 11.8256C195.126 12.3456 194.808 12.96 194.589 13.6686C194.37 14.3767 194.261 15.1353 194.261 15.9448C194.261 16.7687 194.374 17.5312 194.6 18.2323C194.826 18.9339 195.155 19.5404 195.586 20.0538C196.016 20.5669 196.538 20.9676 197.152 21.2566C197.765 21.546 198.466 21.6907 199.254 21.6907C200.277 21.6907 201.119 21.4438 201.784 20.9505C202.449 20.4572 202.963 19.8552 203.328 19.144L206.066 19.6013Z" fill="#F8F8F8"/>
<path fill-rule="evenodd" clip-rule="evenodd" d="M209.638 7.92924H219.846V10.3438H212.338V14.471H219.319V16.8418H212.338V21.2765H220V23.6915H209.638V7.92924Z" fill="#F8F8F8"/>
</svg>
