<svg width="92" height="43" viewBox="0 0 92 43" fill="none" xmlns="http://www.w3.org/2000/svg">
<path d="M81.5318 13.6226C83.9422 11.1807 86.6131 11.8989 86.6131 14.2673C86.6131 16.579 83.8763 19.0743 80.5755 21.0085C80.2557 21.1922 79.8765 21.406 79.494 21.5964C79.3654 21.0152 79.2928 20.3705 79.2928 19.6522C79.2928 17.678 80.1205 15.0524 81.5318 13.6226ZM68.6752 38.5495C65.4734 41.7932 61.3813 37.6576 66.1559 32.8205C67.2375 31.7249 69.0115 30.5189 70.858 29.4199C71.9099 32.0656 71.0757 36.1076 68.6752 38.5495ZM48.2806 25.5616C45.824 25.5616 44.2347 22.5785 44.726 18.8939C45.2074 15.2094 47.5914 12.2263 50.0447 12.2263C52.3166 12.2263 53.8466 14.7885 53.6719 18.0956C53.6092 18.5733 53.5532 19.0342 53.507 19.4785C52.8607 22.8825 50.5987 25.5616 48.2806 25.5616ZM15.8538 24.3356C15.0525 25.1474 14.0732 25.5783 13.0806 25.5783C12.1541 25.5783 11.3528 25.1541 10.69 24.4826C8.41809 22.181 8.61593 16.5322 11.5342 13.5658C12.3618 12.7274 13.3609 12.2396 14.3897 12.2396C15.3097 12.2396 16.1176 12.6539 16.7803 13.3253C18.9204 15.4933 19.0457 21.102 15.8538 24.3356ZM91.8692 25.5416C91.8692 25.5416 90.9591 24.2521 90.6788 23.8847C90.4876 23.6442 90.2502 23.3502 89.6237 23.7845C88.242 24.7231 86.6857 25.5817 84.7666 25.5817C83.3025 25.5817 82.0198 25.2042 81.0669 24.3857C81.4658 24.202 81.8846 23.9982 82.3133 23.7678C84.5786 22.5251 86.468 20.9484 87.3781 20.0264C91.7868 15.5601 90.4051 8.89913 85.0337 8.89913C79.9589 8.89913 75.9493 13.9099 75.9493 19.4752C75.9493 20.3137 76.0482 21.5096 76.4043 22.7823C76.1042 22.9293 74.0961 23.9147 71.6857 25.261C69.4204 23.5373 65.8855 24.3123 65.8855 24.3123C69.1665 19.5954 74.106 12.2263 74.5248 11.6183C74.8248 11.184 74.7787 10.7531 74.4885 10.0716C74.1159 9.25322 73.7433 9.1029 73.2322 9.1029H62.9772C62.6409 9.1029 62.3771 9.2599 62.2782 9.6474C62.1858 10.0249 61.9682 11.341 61.9319 11.792C61.8858 12.243 62.3045 12.5202 62.7398 12.5202H70.1689L63.4487 22.2578C63.4026 22.2946 63.3564 22.3414 63.3201 22.4048C62.3474 23.8312 60.8471 25.8322 59.0467 25.8322C57.9289 25.8322 56.5472 25.0204 56.5472 22.3681C56.5472 19.7692 57.5826 14.2807 58.3377 10.0048C58.4202 9.54385 58.2652 9.09288 57.5365 9.09288H55.7196C55.3008 9.09288 55.0634 9.3501 55.0007 9.71087C54.8919 10.3656 54.7831 11.0103 54.6743 11.6283C53.7741 9.88792 52.3364 8.90247 50.2558 8.90247C48.3268 8.90247 46.4472 9.6307 44.9106 11.1774C41.0724 15.0657 41.8012 21.4027 38.4906 24.7565C37.0628 26.203 35.4437 25.762 35.4437 22.9159C35.4437 19.6656 36.6704 16.0445 38.0817 12.6071C38.3257 11.9991 38.0619 11.4914 37.8014 11.0972C37.4288 10.546 37.2837 10.2487 36.611 10.2487C35.5658 10.2487 33.894 10.9201 30.5471 10.9201C29.8381 10.9201 29.1556 10.8934 28.5455 10.8466C28.5818 10.3389 28.5917 9.99816 28.6016 9.87122C28.6214 9.39352 28.4565 9.08954 27.9553 9.08954H26.2472C25.6273 9.08954 25.4756 9.3835 25.4031 9.87122C25.1129 11.9423 24.559 19.552 20.7933 23.3669C20.358 23.8078 20.0943 23.9481 20.0943 23.9481C21.0307 22.0875 21.5385 19.6456 21.5385 17.7114C21.5385 12.2664 18.3565 8.89579 14.3633 8.89579C13.1433 8.89579 11.854 9.29331 10.6438 10.0549C11.2077 6.73781 11.7254 3.63448 11.9068 2.58556C12.0617 1.70032 11.7419 1.23933 11.5144 0.871874C11.1286 0.267241 10.7889 0 10.2811 0H4.38864C4.0523 0 3.7984 0.240517 3.71597 0.617995C3.61704 1.05894 3.40601 2.22144 3.37963 2.75592C3.35985 3.22694 3.6797 3.40064 4.0523 3.40064H8.36203C7.66957 7.68318 6.3605 15.9844 5.96151 18.0655C5.4636 20.7179 3.59726 23.9682 0.461413 25.1207C0.0690202 25.2676 -0.0925534 25.6284 0.0525331 26.0527C0.19762 26.4769 0.735099 27.5826 0.896673 27.8666C1.06154 28.1605 1.42426 28.3543 1.77049 28.234C3.39941 27.6528 4.88985 26.7141 6.07033 25.5249C6.3605 25.2309 6.64408 24.8968 6.91447 24.5394C8.32246 27.7463 11.1879 28.9155 14.1259 28.9155C17.4431 28.9155 21.0274 27.7463 23.5368 25.1942C26.4748 22.2278 27.7014 17.3105 28.2191 13.8264C28.9478 13.9266 29.7755 14.0101 30.5636 14.0101C32.5816 14.0101 34.2732 13.5758 34.2732 13.5758C34.2732 13.5758 32.2387 19.0476 32.2387 23.0829C32.2387 27.6327 34.3853 28.9222 36.766 28.9222C39.2127 28.9222 40.9307 27.0615 42.1573 24.7599C42.4771 25.4781 42.9487 26.3366 43.595 26.988C44.7029 28.1104 46.0779 28.9222 48.0597 28.9222C50.325 28.9222 52.2705 27.596 53.6521 25.5616C53.8961 26.4168 54.2786 27.1383 54.7963 27.6628C55.4954 28.371 56.7781 28.9255 58.3872 28.9255C61.1504 28.9255 62.753 26.8243 67.0528 26.8243C67.5969 26.8243 68.0882 26.9078 68.5334 27.0648C66.5615 28.2808 64.6886 29.5903 63.5411 30.7494C59.9963 34.3405 59.8315 39.0673 62.1594 41.4257C64.9787 44.2818 68.9983 42.8521 71.5076 40.31C74.4456 37.3336 75.2997 31.7082 73.5982 27.8565C75.6525 26.7609 77.3704 25.9491 77.7793 25.7554C79.062 27.5325 81.1889 28.9255 84.6973 28.9255C87.2067 28.9255 89.7358 28.0236 91.7076 26.5137C92.0242 26.2999 92.0868 25.8556 91.8692 25.5416Z" fill="#F8F8F8"/>
</svg>
