<svg width="160" height="220" viewBox="0 0 160 220" fill="none" xmlns="http://www.w3.org/2000/svg">
<g filter="url(#filter0_d_0_10)">
<circle cx="70" cy="120" r="20" fill="#FEE3CB"/>
</g>
<path d="M78.1851 116.193C78.1084 116.082 78.0061 115.991 77.8868 115.929C77.7675 115.866 77.6348 115.833 77.5001 115.833H66.1109L65.1492 113.525C65.0232 113.221 64.8096 112.961 64.5358 112.779C64.2619 112.596 63.94 112.499 63.6109 112.5H61.6667V114.167H63.6109L67.5642 123.654C67.6276 123.806 67.7344 123.936 67.8713 124.027C68.0081 124.118 68.1689 124.167 68.3334 124.167H75.0001C75.3476 124.167 75.6584 123.951 75.7809 123.627L78.2809 116.96C78.3282 116.834 78.3441 116.698 78.3274 116.564C78.3107 116.431 78.2619 116.303 78.1851 116.193ZM74.4226 122.5H68.8892L66.8059 117.5H76.2976L74.4226 122.5Z" fill="#000201"/>
<path d="M68.75 127.5C69.4404 127.5 70 126.94 70 126.25C70 125.56 69.4404 125 68.75 125C68.0596 125 67.5 125.56 67.5 126.25C67.5 126.94 68.0596 127.5 68.75 127.5Z" fill="#000201"/>
<path d="M74.5833 127.5C75.2736 127.5 75.8333 126.94 75.8333 126.25C75.8333 125.56 75.2736 125 74.5833 125C73.8929 125 73.3333 125.56 73.3333 126.25C73.3333 126.94 73.8929 127.5 74.5833 127.5Z" fill="#000201"/>
<g filter="url(#filter1_d_0_10)">
<circle cx="70" cy="60" r="20" fill="#000201"/>
</g>
<path d="M69.9999 53.8292C69.0919 52.9942 67.9034 52.5309 66.6699 52.5308C66.017 52.5315 65.3707 52.6613 64.7682 52.9127C64.1657 53.1641 63.6188 53.5322 63.1591 53.9958C61.1982 55.965 61.1991 59.045 63.1607 61.0058L69.2707 67.1158C69.4124 67.365 69.6857 67.5258 69.9999 67.5258C70.1289 67.5246 70.2558 67.4931 70.3704 67.4339C70.4851 67.3747 70.5842 67.2894 70.6599 67.185L76.8391 61.0058C78.8007 59.0442 78.8007 55.965 76.8374 53.9925C76.3779 53.5298 75.8315 53.1624 75.2295 52.9116C74.6276 52.6607 73.982 52.5313 73.3299 52.5308C72.0964 52.531 70.908 52.9944 69.9999 53.8292ZM75.6591 55.1708C76.9616 56.48 76.9624 58.525 75.6607 59.8275L69.9999 65.4883L64.3391 59.8275C63.0374 58.525 63.0382 56.48 64.3374 55.1742C64.9707 54.5442 65.7991 54.1975 66.6699 54.1975C67.5407 54.1975 68.3657 54.5442 68.9941 55.1725L69.4107 55.5892C69.4881 55.6666 69.5799 55.7281 69.681 55.77C69.7821 55.8119 69.8905 55.8335 69.9999 55.8335C70.1093 55.8335 70.2177 55.8119 70.3188 55.77C70.4199 55.7281 70.5117 55.6666 70.5891 55.5892L71.0057 55.1725C72.2657 53.915 74.4007 53.9183 75.6591 55.1708Z" fill="white"/>
<defs>
<filter id="filter0_d_0_10" x="0" y="60" width="160" height="160" filterUnits="userSpaceOnUse" color-interpolation-filters="sRGB">
<feFlood flood-opacity="0" result="BackgroundImageFix"/>
<feColorMatrix in="SourceAlpha" type="matrix" values="0 0 0 0 0 0 0 0 0 0 0 0 0 0 0 0 0 0 127 0" result="hardAlpha"/>
<feOffset dx="10" dy="20"/>
<feGaussianBlur stdDeviation="30"/>
<feComposite in2="hardAlpha" operator="out"/>
<feColorMatrix type="matrix" values="0 0 0 0 0 0 0 0 0 0 0 0 0 0 0 0 0 0 0.25 0"/>
<feBlend mode="normal" in2="BackgroundImageFix" result="effect1_dropShadow_0_10"/>
<feBlend mode="normal" in="SourceGraphic" in2="effect1_dropShadow_0_10" result="shape"/>
</filter>
<filter id="filter1_d_0_10" x="0" y="0" width="160" height="160" filterUnits="userSpaceOnUse" color-interpolation-filters="sRGB">
<feFlood flood-opacity="0" result="BackgroundImageFix"/>
<feColorMatrix in="SourceAlpha" type="matrix" values="0 0 0 0 0 0 0 0 0 0 0 0 0 0 0 0 0 0 127 0" result="hardAlpha"/>
<feOffset dx="10" dy="20"/>
<feGaussianBlur stdDeviation="30"/>
<feComposite in2="hardAlpha" operator="out"/>
<feColorMatrix type="matrix" values="0 0 0 0 0 0 0 0 0 0 0 0 0 0 0 0 0 0 0.25 0"/>
<feBlend mode="normal" in2="BackgroundImageFix" result="effect1_dropShadow_0_10"/>
<feBlend mode="normal" in="SourceGraphic" in2="effect1_dropShadow_0_10" result="shape"/>
</filter>
</defs>
</svg>
