<svg width="132" height="33" viewBox="0 0 132 33" fill="none" xmlns="http://www.w3.org/2000/svg">
<path d="M27.4856 0H5.51437C2.46853 0 0 2.46853 0 5.51437V27.4856C0 30.5315 2.46853 33 5.51437 33H27.4856C30.5315 33 33 30.5315 33 27.4856V5.51437C33 2.46853 30.5315 0 27.4856 0ZM27.0012 25.2593C27.0012 26.2215 26.2215 27.0012 25.2593 27.0012H7.7407C6.7785 27.0012 5.99879 26.2215 5.99879 25.2593V7.74069C5.99879 6.7785 6.7785 5.99879 7.7407 5.99879H25.2593C26.2215 5.99879 27.0012 6.7785 27.0012 7.74069V25.2593ZM12.9996 20.9792C12.4455 20.9792 12.0009 20.5313 12.0009 19.9772V12.983C12.0009 12.4289 12.4455 11.9777 12.9996 11.9777H20.0037C20.5545 11.9777 21.0024 12.4256 21.0024 12.983V19.9738C21.0024 20.5279 20.5545 20.9759 20.0037 20.9759H12.9996V20.9792ZM41.7493 20.5014H45.3526C45.5317 22.5419 46.9153 24.1345 49.7057 24.1345C52.1974 24.1345 53.7303 22.9036 53.7303 21.0422C53.7303 19.3003 52.5292 18.5206 50.366 18.0096L47.5723 17.4091C44.5397 16.7488 42.257 14.7979 42.257 11.6127C42.257 8.09903 45.3791 5.69686 49.4336 5.69686C53.727 5.69686 56.4908 7.94972 56.7297 11.2809H53.2459C52.8312 9.72149 51.5372 8.79247 49.4369 8.79247C47.2139 8.79247 45.6844 9.99356 45.6844 11.5264C45.6844 13.0593 47.0049 13.9883 49.2876 14.4993L52.0515 15.0998C55.084 15.7601 57.1544 17.5916 57.1544 20.8033C57.1544 24.8877 54.092 27.3197 49.709 27.3197C44.7819 27.3164 42.0513 24.6455 41.7493 20.5014ZM70.0445 33V27.0244L70.2801 24.4033H70.0445C69.2183 26.2878 67.4831 27.3197 65.1274 27.3197C61.3283 27.3197 58.5015 24.2274 58.5015 19.4861C58.5015 14.7448 61.3283 11.6525 65.1274 11.6525C67.4532 11.6525 69.1022 12.7408 70.0445 14.4495H70.2801V11.9445H73.4022V33H70.0445ZM70.1606 19.4828C70.1606 16.4502 68.3059 14.6818 66.0365 14.6818C63.767 14.6818 61.9123 16.4502 61.9123 19.4828C61.9123 22.5154 63.767 24.2838 66.0365 24.2838C68.3059 24.2838 70.1606 22.5187 70.1606 19.4828ZM75.894 21.0455V11.9445H79.2517V20.7502C79.2517 23.1358 80.3997 24.2838 82.3141 24.2838C84.6699 24.2838 86.2028 22.605 86.2028 19.9838V11.9445H89.5605V27.0211H86.4383V23.8989H86.2028C85.4662 25.903 83.847 27.3164 81.3453 27.3164C77.7487 27.3164 75.894 25.0204 75.894 21.0455ZM91.6043 22.8107C91.6043 19.9838 93.5785 18.3348 97.0822 18.1291L101.233 17.8637V16.6858C101.233 15.2724 100.201 14.4197 98.3762 14.4197C96.6973 14.4197 95.6953 15.2724 95.4299 16.4801H92.0721C92.4272 13.4176 94.9587 11.6492 98.3729 11.6492C102.232 11.6492 104.587 13.2982 104.587 16.4801V27.0211H101.465V24.2241H101.23C100.523 26.0788 99.0497 27.3164 96.2229 27.3164C93.5188 27.3164 91.6043 25.4915 91.6043 22.8107ZM101.236 20.9559V20.1596L97.8486 20.3952C96.0238 20.5113 95.1976 21.1915 95.1976 22.5452C95.1976 23.6932 96.1399 24.5194 97.4638 24.5194C99.8527 24.5194 101.236 22.9898 101.236 20.9559ZM107.092 27.0244V11.9445H110.215V14.8311H110.45C110.891 12.8569 112.394 11.9445 114.631 11.9445H116.164V14.9771H114.249C112.069 14.9771 110.45 16.3905 110.45 19.0714V27.0211H107.092V27.0244ZM131.525 20.1032H120.069C120.245 22.8704 122.189 24.4331 124.339 24.4331C126.164 24.4331 127.312 23.6965 127.962 22.459H131.29C130.377 25.5214 127.697 27.3164 124.309 27.3164C119.863 27.3164 116.741 23.9885 116.741 19.4828C116.741 14.9771 119.949 11.6492 124.339 11.6492C128.755 11.6492 131.642 14.6818 131.642 18.4509C131.645 19.1908 131.585 19.5724 131.525 20.1032ZM128.317 17.7774C128.201 15.6871 126.462 14.2737 124.342 14.2737C122.338 14.2737 120.663 15.5411 120.248 17.7774H128.317Z" fill="#F8F8F8"/>
</svg>
