<svg width="134" height="30" viewBox="0 0 134 30" fill="none" xmlns="http://www.w3.org/2000/svg">
<path fill-rule="evenodd" clip-rule="evenodd" d="M14.1278 12.6583C14.1278 5.72942 12.9648 2.85717 9.76747 2.85717C6.94749 2.85717 5.52309 4.8707 5.52309 11.859C5.52309 18.7581 6.62776 21.601 9.88365 21.601C12.7615 21.601 14.1278 19.6168 14.1278 12.6583ZM0 12.4808C0 4.69295 5.26145 1.61358 9.94197 1.61358C14.9418 1.61358 19.6509 4.66359 19.6509 12.007C19.6509 19.8538 14.3894 22.8446 9.70893 22.8446C4.70934 22.8446 0 19.5875 0 12.4808Z" fill="#F8F8F8"/>
<path fill-rule="evenodd" clip-rule="evenodd" d="M43.3264 12.9841L48.2972 12.7176C48.2972 9.13477 47.8325 7.83179 46.0881 7.83179C44.6054 7.83179 43.4426 9.25312 43.3264 12.9841ZM38.7335 14.7311C38.7335 9.57881 42.4832 6.70656 46.3205 6.70656C50.2853 6.70656 52.7735 8.70189 52.9152 13.9222C52.9181 14.0238 52.837 14.1093 52.7369 14.1093H43.509C43.4089 14.1093 43.328 14.1949 43.3305 14.2966C43.4605 19.0001 45.2547 20.2981 48.2101 20.2981C49.6526 20.2981 50.8155 19.9567 51.7888 19.517C51.8605 19.4845 51.9437 19.5036 51.9948 19.5646L52.3814 20.0277C52.4397 20.0976 52.439 20.2009 52.3774 20.2674C51.3169 21.4065 49.1581 22.8447 46.3205 22.8447C41.2623 22.8447 38.7335 19.7651 38.7335 14.7311Z" fill="#F8F8F8"/>
<path fill-rule="evenodd" clip-rule="evenodd" d="M98.5938 14.9681C98.5938 8.98663 97.4603 7.8614 95.4833 7.8614C93.6518 7.8614 92.5764 9.22356 92.5764 14.3167C92.5764 20.3871 93.5356 21.6896 95.6576 21.6896C97.4022 21.6896 98.5938 20.6534 98.5938 14.9681ZM87.6928 14.8201C87.6928 9.13457 91.646 6.70658 95.5707 6.70658C99.7858 6.70658 103.478 9.28273 103.478 14.672C103.478 20.3573 99.5822 22.8449 95.5707 22.8449C91.3556 22.8449 87.6928 20.2387 87.6928 14.8201Z" fill="#F8F8F8"/>
<path fill-rule="evenodd" clip-rule="evenodd" d="M115.933 14.9681C115.933 8.98663 114.799 7.8614 112.822 7.8614C110.991 7.8614 109.915 9.22356 109.915 14.3167C109.915 20.3871 110.875 21.6896 112.997 21.6896C114.741 21.6896 115.933 20.6534 115.933 14.9681ZM105.032 14.8201C105.032 9.13457 108.985 6.70658 112.909 6.70658C117.124 6.70658 120.816 9.28273 120.816 14.672C120.816 20.3573 116.921 22.8449 112.909 22.8449C108.695 22.8449 105.032 20.2387 105.032 14.8201Z" fill="#F8F8F8"/>
<path fill-rule="evenodd" clip-rule="evenodd" d="M64.8653 6.70658C62.7433 6.70658 60.8247 7.68387 59.2841 8.80888H59.1677L59.2249 6.94191C59.2294 6.79876 59.1083 6.68519 58.9688 6.70112L54.901 7.17088C54.7815 7.18453 54.691 7.2874 54.691 7.41008V22.2545C54.691 22.3843 54.7942 22.4892 54.9213 22.4892H59.0826C59.2097 22.4892 59.3129 22.3843 59.3129 22.2545V9.84535C59.9524 9.69718 60.999 9.46048 62.0167 9.46048C63.3828 9.46048 64.0225 10.0231 64.0225 11.8293V22.2545C64.0225 22.3843 64.1257 22.4892 64.2529 22.4892H68.4432C68.5703 22.4892 68.6738 22.3843 68.6738 22.2545V10.6747C68.6738 8.00956 67.3365 6.70658 64.8653 6.70658Z" fill="#F8F8F8"/>
<path fill-rule="evenodd" clip-rule="evenodd" d="M81.1448 19.8538C80.6797 20.0316 79.8947 20.5054 78.7029 20.5054C76.4936 20.5054 75.3308 18.9951 75.3308 14.3463C75.3308 9.46023 76.7843 7.89096 78.8772 7.89096C79.953 7.89096 80.6506 8.51275 81.1448 9.13455V19.8538ZM85.7668 3.80471C85.7668 2.27413 85.818 0.867822 85.845 0.29064C85.8528 0.121764 85.7121 -0.0138831 85.547 0.00113818L81.3602 0.485461C81.2382 0.496614 81.1448 0.600625 81.1448 0.725575V4.87077C81.1448 5.9366 81.2029 7.03225 81.2029 7.03225C80.5925 6.85449 79.7785 6.70656 78.9938 6.70656C74.4588 6.70656 70.5632 9.16436 70.5632 15.3235C70.5632 20.7126 73.3829 22.8447 76.261 22.8447C78.2958 22.8447 79.9238 22.0155 81.1739 20.9201H81.2901L81.2311 22.5545C81.2244 22.7286 81.3736 22.8663 81.5428 22.8419L85.5311 22.3883C85.6663 22.3692 85.7668 22.2513 85.7668 22.1123V3.80471Z" fill="#F8F8F8"/>
<path fill-rule="evenodd" clip-rule="evenodd" d="M131.62 6.70658C129.934 6.70658 128.277 8.00956 127.376 8.98663H127.259L127.316 6.99676C127.321 6.82743 127.177 6.69269 127.012 6.71158L122.993 7.1711C122.873 7.18475 122.783 7.28763 122.783 7.41053V22.2106C122.783 22.3645 122.905 22.4892 123.056 22.4892H127.131C127.282 22.4892 127.405 22.3645 127.405 22.2106V10.2008C127.812 9.81576 128.48 9.43067 129.003 9.43067C129.265 9.43067 129.44 9.49007 129.614 9.81576C130.166 10.7337 130.604 11.2642 131.852 11.2642C132.986 11.2642 134 10.3488 134 8.92745C134 7.4763 133.015 6.70658 131.62 6.70658Z" fill="#F8F8F8"/>
<path fill-rule="evenodd" clip-rule="evenodd" d="M28.7396 21.6602C27.7511 21.6602 26.9664 21.2159 26.4429 20.5941V9.81563C26.9081 9.6381 27.635 9.2826 28.7977 9.2826C31.007 9.2826 32.2572 10.7631 32.2572 14.9975C32.2572 20.4166 31.0361 21.6602 28.7396 21.6602ZM31.3268 6.70667C29.2917 6.70667 27.6642 7.68374 26.4429 8.7498H26.2977L26.3538 6.97797C26.3589 6.8166 26.2222 6.68801 26.0649 6.70622L22.031 7.17074C21.9112 7.18462 21.821 7.28772 21.821 7.4104V28.8515C21.821 28.9951 21.9436 29.1071 22.0839 29.0909L26.2331 28.6134C26.3527 28.5998 26.4429 28.4967 26.4429 28.374V24.3549C26.4429 23.3186 26.4141 22.5487 26.4141 22.5487C27.0536 22.7262 28.013 22.8446 28.6234 22.8446C33.478 22.8446 37.0244 20.1501 37.0244 13.9909C37.0244 8.57204 34.0884 6.70667 31.3268 6.70667Z" fill="#F8F8F8"/>
</svg>
