<svg width="528" height="70" viewBox="0 0 528 70" fill="none" xmlns="http://www.w3.org/2000/svg">
<rect x="373.5" y="0.5" width="154" height="69" stroke="#D9D9D9"/>
<g clip-path="url(#clip0_192_1847)">
<path fill-rule="evenodd" clip-rule="evenodd" d="M417.98 29.5621H423.447C426.382 29.5621 427.487 31.048 427.316 33.231C427.034 36.835 424.855 38.8289 421.965 38.8289H420.506C420.11 38.8289 419.843 39.0913 419.736 39.8025L419.116 43.9371C419.075 44.2052 418.934 44.3604 418.723 44.3816H415.288C414.965 44.3816 414.85 44.1346 414.935 43.5998L417.029 30.3453C417.111 29.8147 417.402 29.5621 417.98 29.5621Z" fill="#009EE3"/>
<path fill-rule="evenodd" clip-rule="evenodd" d="M441.714 29.3166C443.558 29.3166 445.26 30.3171 445.027 32.8105C444.745 35.7738 443.157 37.4135 440.653 37.4206H438.464C438.149 37.4206 437.997 37.6774 437.915 38.2038L437.492 40.8947C437.428 41.3011 437.219 41.5015 436.912 41.5015H434.876C434.551 41.5015 434.438 41.2941 434.51 40.8298L436.191 30.0447C436.274 29.5141 436.473 29.3166 436.836 29.3166H441.71H441.714ZM438.398 35.0908H440.056C441.093 35.0513 441.782 34.3331 441.851 33.0377C441.893 32.2376 441.353 31.6647 440.493 31.6689L438.932 31.676L438.398 35.0908ZM450.563 40.676C450.749 40.5067 450.938 40.4192 450.911 40.628L450.845 41.1276C450.811 41.3886 450.914 41.5269 451.157 41.5269H452.966C453.271 41.5269 453.419 41.4042 453.494 40.9328L454.609 33.9366C454.665 33.5852 454.579 33.413 454.312 33.413H452.323C452.143 33.413 452.056 33.5132 452.009 33.787L451.936 34.2174C451.898 34.4417 451.795 34.4812 451.699 34.2555C451.362 33.4568 450.501 33.0984 449.3 33.1266C446.51 33.1844 444.629 35.3025 444.427 38.0175C444.272 40.1172 445.776 41.7668 447.76 41.7668C449.2 41.7668 449.843 41.3435 450.569 40.6803L450.563 40.676ZM449.047 39.5993C447.846 39.5993 447.01 38.6412 447.183 37.4672C447.357 36.2931 448.48 35.335 449.681 35.335C450.882 35.335 451.719 36.2931 451.545 37.4672C451.371 38.6412 450.25 39.5993 449.047 39.5993ZM458.149 33.3905H456.315C455.936 33.3905 455.783 33.6727 455.902 34.0198L458.18 40.6887L455.946 43.8623C455.759 44.1276 455.904 44.3689 456.168 44.3689H458.229C458.35 44.3828 458.471 44.3618 458.58 44.3085C458.688 44.2553 458.779 44.1719 458.842 44.0683L465.847 34.0212C466.062 33.7122 465.961 33.3876 465.607 33.3876H463.655C463.321 33.3876 463.187 33.5203 462.995 33.7983L460.074 38.0316L458.768 33.7884C458.692 33.5316 458.502 33.3905 458.15 33.3905H458.149Z" fill="#113984"/>
<path fill-rule="evenodd" clip-rule="evenodd" d="M473.134 29.3166C474.979 29.3166 476.68 30.3171 476.448 32.8105C476.165 35.7738 474.578 37.4135 472.073 37.4206H469.886C469.571 37.4206 469.419 37.6774 469.337 38.2037L468.914 40.8947C468.85 41.3011 468.641 41.5015 468.334 41.5015H466.297C465.973 41.5015 465.86 41.2941 465.932 40.8298L467.615 30.0419C467.699 29.5113 467.898 29.3138 468.26 29.3138H473.134V29.3166ZM469.818 35.0908H471.476C472.513 35.0513 473.202 34.3331 473.271 33.0377C473.313 32.2376 472.773 31.6647 471.914 31.6689L470.353 31.676L469.818 35.0908ZM481.983 40.676C482.17 40.5067 482.359 40.4192 482.332 40.628L482.266 41.1276C482.232 41.3886 482.335 41.5269 482.577 41.5269H484.386C484.691 41.5269 484.839 41.4041 484.914 40.9328L486.029 33.9365C486.085 33.5852 485.999 33.413 485.733 33.413H483.746C483.567 33.413 483.479 33.5132 483.433 33.787L483.359 34.2174C483.321 34.4417 483.218 34.4812 483.122 34.2555C482.785 33.4568 481.924 33.0983 480.723 33.1266C477.933 33.1844 476.052 35.3025 475.851 38.0175C475.695 40.1172 477.2 41.7668 479.184 41.7668C480.623 41.7668 481.266 41.3435 481.992 40.6802L481.983 40.676ZM480.469 39.5993C479.268 39.5993 478.432 38.6412 478.605 37.4671C478.779 36.2931 479.902 35.335 481.103 35.335C482.304 35.335 483.14 36.2931 482.967 37.4671C482.793 38.6412 481.67 39.5993 480.469 39.5993ZM488.813 41.5382H486.725C486.688 41.5398 486.652 41.5334 486.619 41.5194C486.585 41.5054 486.555 41.4842 486.531 41.4572C486.506 41.4302 486.488 41.3982 486.477 41.3634C486.467 41.3286 486.464 41.292 486.469 41.256L488.304 29.6341C488.321 29.5548 488.365 29.4837 488.428 29.4325C488.491 29.3812 488.57 29.3528 488.651 29.3519H490.739C490.776 29.3502 490.812 29.3566 490.845 29.3706C490.879 29.3846 490.909 29.4059 490.933 29.4328C490.958 29.4598 490.976 29.4918 490.987 29.5266C490.997 29.5614 491 29.5981 490.995 29.6341L489.16 41.256C489.143 41.3358 489.1 41.4075 489.037 41.4593C488.974 41.5111 488.895 41.5399 488.813 41.541V41.5382Z" fill="#009EE3"/>
<path fill-rule="evenodd" clip-rule="evenodd" d="M414.561 25H420.034C421.575 25 423.403 25.0494 424.625 26.1289C425.442 26.85 425.871 27.9972 425.773 29.2333C425.437 33.4116 422.938 35.7526 419.585 35.7526H416.887C416.427 35.7526 416.123 36.0574 415.994 36.8815L415.24 41.6793C415.191 41.9897 415.057 42.1732 414.817 42.1958H411.44C411.066 42.1958 410.933 41.9136 411.031 41.2898L413.458 25.9116C413.555 25.2935 413.895 25 414.561 25Z" fill="#113984"/>
<path fill-rule="evenodd" clip-rule="evenodd" d="M416.073 36.3947L417.029 30.3453C417.112 29.8147 417.403 29.5607 417.981 29.5607H423.448C424.352 29.5607 425.085 29.7018 425.657 29.9629C425.109 33.6825 422.703 35.7484 419.553 35.7484H416.859C416.498 35.7498 416.233 35.9304 416.073 36.3947Z" fill="#172C70"/>
</g>
<rect x="198.5" y="0.5" width="154" height="69" stroke="#D9D9D9"/>
<g clip-path="url(#clip1_192_1847)">
<path d="M274.449 34.6155V41.5904H272.238V24.373H278.101C279.515 24.3455 280.874 24.881 281.904 25.8696C282.934 26.7895 283.511 28.1213 283.483 29.4943C283.511 30.881 282.934 32.2128 281.904 33.1464C280.874 34.1213 279.611 34.6155 278.115 34.6155H274.449ZM274.449 26.4874V32.5011H278.156C278.98 32.5286 279.776 32.1991 280.339 31.6087C281.506 30.4828 281.52 28.6293 280.394 27.4622L280.339 27.4073C279.776 26.8032 278.98 26.4737 278.156 26.5011L274.449 26.4874ZM288.577 29.4256C290.211 29.4256 291.501 29.865 292.449 30.73C293.396 31.6087 293.863 32.8032 293.863 34.3272V41.5766H291.749V39.9428H291.652C290.733 41.2883 289.524 41.9611 288 41.9611C286.71 41.9611 285.611 41.5766 284.746 40.8078C283.895 40.0938 283.414 39.0366 283.442 37.9245C283.442 36.7025 283.909 35.7414 284.829 35.0137C285.749 34.286 286.984 33.929 288.522 33.929C289.84 33.929 290.911 34.1762 291.762 34.643V34.135C291.762 33.3798 291.433 32.6659 290.856 32.1853C290.266 31.6636 289.511 31.3753 288.728 31.3753C287.492 31.3753 286.517 31.897 285.79 32.9405L283.84 31.7185C284.897 30.1945 286.476 29.4256 288.577 29.4256ZM285.721 37.9794C285.721 38.5561 285.996 39.0915 286.449 39.421C286.943 39.8055 287.547 40.0114 288.165 39.9977C289.099 39.9977 289.991 39.627 290.65 38.968C291.378 38.2815 291.749 37.4714 291.749 36.5377C291.062 35.9885 290.101 35.7139 288.865 35.7139C287.973 35.7139 287.218 35.9336 286.614 36.3593C286.023 36.7986 285.721 37.3341 285.721 37.9794ZM306 29.8101L298.614 46.7803H296.334L299.08 40.849L294.22 29.8238H296.623L300.124 38.2815H300.179L303.598 29.8238L306 29.8101Z" fill="#5F6368"/>
<path d="M265.51 33.1053C265.51 32.4325 265.455 31.7597 265.345 31.1007H256.022V34.9039H261.363C261.144 36.1258 260.43 37.2242 259.386 37.9107V40.3821H262.572C264.439 38.6659 265.51 36.1258 265.51 33.1053Z" fill="#4285F4"/>
<path d="M256.023 42.7711C258.686 42.7711 260.938 41.8924 262.572 40.3821L259.387 37.9107C258.494 38.5149 257.355 38.8581 256.023 38.8581C253.441 38.8581 251.258 37.1144 250.476 34.7803H247.194V37.3341C248.869 40.6567 252.288 42.7711 256.023 42.7711Z" fill="#34A853"/>
<path d="M250.476 34.7803C250.064 33.5583 250.064 32.2265 250.476 30.9908V28.4508H247.194C246.497 29.8251 246.134 31.3445 246.134 32.8856C246.134 34.4266 246.497 35.946 247.194 37.3203L250.476 34.7803Z" fill="#FBBC04"/>
<path d="M256.023 26.913C257.437 26.8856 258.796 27.421 259.812 28.3959L262.627 25.5812C260.842 23.8924 258.48 22.9725 256.023 23C252.288 23 248.869 25.1144 247.194 28.4508L250.476 31.0046C251.258 28.6567 253.441 26.913 256.023 26.913Z" fill="#EA4335"/>
</g>
<rect x="0.5" y="0.5" width="177" height="69" fill="#F7F7F7" stroke="#23292E"/>
<g clip-path="url(#clip2_192_1847)">
<path d="M90.0306 31.1942C89.9963 33.8932 92.4358 35.3994 94.2736 36.2948C96.1617 37.2137 96.7959 37.8028 96.7887 38.6244C96.7743 39.882 95.2825 40.4369 93.8862 40.4585C91.4503 40.4964 90.0342 39.8009 88.9081 39.2748L88.0307 43.3809C89.1604 43.9016 91.2521 44.3556 93.4214 44.3754C98.5129 44.3754 101.844 41.8621 101.862 37.965C101.882 33.0194 95.0213 32.7455 95.0681 30.5348C95.0843 29.8646 95.7239 29.1493 97.1256 28.9673C97.8193 28.8755 99.7345 28.8052 101.906 29.8051L102.758 25.8324C101.59 25.4072 100.089 25 98.2211 25C93.4286 25 90.0576 27.5476 90.0306 31.1942ZM110.946 25.3423C110.017 25.3423 109.233 25.8846 108.883 26.717L101.61 44.0836H106.698L107.711 41.2855H113.928L114.516 44.0836H119L115.087 25.3423H110.946ZM111.658 30.4051L113.126 37.4425H109.105L111.658 30.4051ZM83.8616 25.3423L79.851 44.0836H84.6994L88.7081 25.3423H83.8616ZM76.689 25.3423L71.6425 38.0983L69.6012 27.2521C69.3615 26.0414 68.4157 25.3423 67.3653 25.3423H59.1153L59 25.8864C60.6936 26.254 62.6178 26.8468 63.7835 27.4809C64.497 27.8683 64.7006 28.207 64.9348 29.1277L68.8012 44.0836H73.9252L81.7806 25.3423H76.689Z" fill="url(#paint0_linear_192_1847)"/>
</g>
<defs>
<linearGradient id="paint0_linear_192_1847" x1="86.5845" y1="44.7641" x2="87.1453" y2="24.8653" gradientUnits="userSpaceOnUse">
<stop stop-color="#222357"/>
<stop offset="1" stop-color="#254AA5"/>
</linearGradient>
<clipPath id="clip0_192_1847">
<rect width="80" height="19.3816" fill="white" transform="translate(411 25)"/>
</clipPath>
<clipPath id="clip1_192_1847">
<rect width="60" height="23.8902" fill="white" transform="translate(246 23)"/>
</clipPath>
<clipPath id="clip2_192_1847">
<rect width="60" height="19.4531" fill="white" transform="translate(59 25)"/>
</clipPath>
</defs>
</svg>
