<svg width="220" height="40" viewBox="0 0 220 40" fill="none" xmlns="http://www.w3.org/2000/svg">
<circle cx="20" cy="20" r="20" fill="#FEE3CB"/>
<path d="M19.999 15.377C18.7726 15.377 17.5965 15.8641 16.7293 16.7313C15.8622 17.5985 15.375 18.7746 15.375 20.001C15.375 21.2273 15.8622 22.4034 16.7293 23.2706C17.5965 24.1378 18.7726 24.625 19.999 24.625C21.2254 24.625 22.4015 24.1378 23.2687 23.2706C24.1358 22.4034 24.623 21.2273 24.623 20.001C24.623 18.7746 24.1358 17.5985 23.2687 16.7313C22.4015 15.8641 21.2254 15.377 19.999 15.377ZM19.999 23.004C19.2023 23.004 18.4382 22.6875 17.8749 22.1241C17.3115 21.5607 16.995 20.7967 16.995 20C16.995 19.2032 17.3115 18.4392 17.8749 17.8758C18.4382 17.3124 19.2023 16.996 19.999 16.996C20.7957 16.996 21.5598 17.3124 22.1231 17.8758C22.6865 18.4392 23.003 19.2032 23.003 20C23.003 20.7967 22.6865 21.5607 22.1231 22.1241C21.5598 22.6875 20.7957 23.004 19.999 23.004Z" fill="#000201"/>
<path d="M24.806 16.2849C25.4014 16.2849 25.884 15.8023 25.884 15.2069C25.884 14.6115 25.4014 14.1289 24.806 14.1289C24.2107 14.1289 23.728 14.6115 23.728 15.2069C23.728 15.8023 24.2107 16.2849 24.806 16.2849Z" fill="#000201"/>
<path d="M28.533 14.1109C28.3015 13.5131 27.9477 12.9702 27.4943 12.5169C27.0409 12.0637 26.4979 11.7102 25.9 11.4789C25.2003 11.2162 24.4611 11.0742 23.714 11.0589C22.751 11.0169 22.446 11.0049 20.004 11.0049C17.562 11.0049 17.249 11.0049 16.294 11.0589C15.5473 11.0734 14.8087 11.2155 14.11 11.4789C13.5119 11.7099 12.9687 12.0634 12.5153 12.5166C12.0619 12.9699 11.7082 13.5129 11.477 14.1109C11.2143 14.8105 11.0726 15.5497 11.058 16.2969C11.015 17.2589 11.002 17.5639 11.002 20.0069C11.002 22.4489 11.002 22.7599 11.058 23.7169C11.073 24.4649 11.214 25.2029 11.477 25.9039C11.7088 26.5016 12.0628 27.0445 12.5164 27.4977C12.9699 27.9509 13.513 28.3045 14.111 28.5359C14.8084 28.8091 15.5473 28.9613 16.296 28.9859C17.259 29.0279 17.564 29.0409 20.006 29.0409C22.448 29.0409 22.761 29.0409 23.716 28.9859C24.4631 28.9707 25.2022 28.829 25.902 28.5669C26.4997 28.3351 27.0426 27.9812 27.4959 27.5279C27.9493 27.0745 28.3031 26.5316 28.535 25.9339C28.798 25.2339 28.939 24.4959 28.954 23.7479C28.997 22.7859 29.01 22.4809 29.01 20.0379C29.01 17.5949 29.01 17.2849 28.954 16.3279C28.9423 15.5702 28.7999 14.8201 28.533 14.1109ZM27.315 23.6429C27.3085 24.2192 27.2033 24.7901 27.004 25.3309C26.8538 25.7198 26.6239 26.0729 26.329 26.3676C26.0342 26.6622 25.6809 26.8919 25.292 27.0419C24.7572 27.2403 24.1923 27.3455 23.622 27.3529C22.672 27.3969 22.404 27.4079 19.968 27.4079C17.53 27.4079 17.281 27.4079 16.313 27.3529C15.7429 27.3459 15.1783 27.2407 14.644 27.0419C14.2536 26.8929 13.899 26.6636 13.6028 26.3688C13.3067 26.0741 13.0758 25.7205 12.925 25.3309C12.7284 24.7959 12.6233 24.2317 12.614 23.6619C12.571 22.7119 12.561 22.4439 12.561 20.0079C12.561 17.5709 12.561 17.3219 12.614 16.3529C12.6204 15.7769 12.7256 15.2063 12.925 14.6659C13.23 13.8769 13.855 13.2559 14.644 12.9539C15.1785 12.756 15.743 12.6508 16.313 12.6429C17.264 12.5999 17.531 12.5879 19.968 12.5879C22.405 12.5879 22.655 12.5879 23.622 12.6429C24.1924 12.6497 24.7573 12.755 25.292 12.9539C25.6809 13.1042 26.0341 13.3341 26.3289 13.6289C26.6238 13.9237 26.8537 14.277 27.004 14.6659C27.2005 15.2008 27.3056 15.765 27.315 16.3349C27.358 17.2859 27.369 17.5529 27.369 19.9899C27.369 22.4259 27.369 22.6879 27.326 23.6439H27.315V23.6429Z" fill="#000201"/>
<circle cx="80" cy="20" r="20" fill="#FEE3CB"/>
<path d="M81.397 28.9972V20.8012H84.162L84.573 17.5922H81.397V15.5482C81.397 14.6222 81.655 13.9882 82.984 13.9882H84.668V11.1272C83.8487 11.0394 83.0251 10.997 82.201 11.0002C79.757 11.0002 78.079 12.4922 78.079 15.2312V17.5862H75.332V20.7952H78.085V28.9972H81.397Z" fill="#000201"/>
<circle cx="140" cy="20" r="20" fill="#FEE3CB"/>
<path d="M147.633 15.997C147.646 16.172 147.646 16.346 147.646 16.52C147.646 21.845 143.593 27.981 136.186 27.981C133.904 27.981 131.784 27.32 130 26.172C130.324 26.209 130.636 26.222 130.973 26.222C132.786 26.2264 134.548 25.6202 135.974 24.501C135.133 24.4858 134.319 24.2085 133.643 23.7078C132.968 23.2071 132.466 22.5079 132.207 21.708C132.456 21.745 132.706 21.77 132.968 21.77C133.329 21.77 133.692 21.72 134.029 21.633C133.117 21.4489 132.296 20.9544 131.708 20.2337C131.119 19.5131 130.798 18.6107 130.799 17.68V17.63C131.336 17.929 131.959 18.116 132.619 18.141C132.066 17.7736 131.613 17.2751 131.299 16.6898C130.986 16.1046 130.822 15.4509 130.823 14.787C130.823 14.039 131.022 13.353 131.371 12.755C132.383 14.0001 133.646 15.0186 135.076 15.7447C136.507 16.4708 138.075 16.8883 139.677 16.97C139.615 16.67 139.577 16.359 139.577 16.047C139.577 15.518 139.681 14.9941 139.883 14.5053C140.085 14.0165 140.382 13.5723 140.756 13.1982C141.13 12.8241 141.574 12.5275 142.063 12.3251C142.552 12.1228 143.076 12.0188 143.605 12.019C144.765 12.019 145.812 12.505 146.548 13.291C147.45 13.1167 148.315 12.7875 149.104 12.318C148.803 13.2489 148.174 14.0381 147.333 14.538C148.133 14.4468 148.914 14.2365 149.652 13.914C149.101 14.7171 148.419 15.4214 147.633 15.997Z" fill="#000201"/>
<circle cx="200" cy="20" r="20" fill="#FEE3CB"/>
<path d="M207.59 14.69C206.593 14.4708 205.691 13.9414 205.014 13.1779C204.337 12.4143 203.919 11.4559 203.82 10.44V10H200.37V23.67C200.371 24.2766 200.18 24.868 199.826 25.3604C199.472 25.8529 198.972 26.2215 198.397 26.414C197.822 26.6065 197.201 26.6131 196.621 26.4329C196.042 26.2527 195.534 25.8948 195.17 25.41C194.843 24.9808 194.643 24.4689 194.593 23.932C194.542 23.3951 194.642 22.8548 194.883 22.372C195.123 21.8892 195.494 21.4834 195.953 21.2003C196.412 20.9172 196.941 20.7681 197.48 20.77C197.778 20.7683 198.075 20.8121 198.36 20.9V17.4C198.028 17.3589 197.694 17.3422 197.36 17.35C196.129 17.3829 194.935 17.7739 193.923 18.4753C192.911 19.1766 192.126 20.1578 191.663 21.2986C191.2 22.4395 191.08 23.6905 191.318 24.8986C191.555 26.1066 192.14 27.2191 193 28.1C193.881 28.9962 195.009 29.6101 196.241 29.8638C197.472 30.1175 198.751 29.9994 199.915 29.5246C201.079 29.0498 202.075 28.2397 202.778 27.1973C203.48 26.1548 203.857 24.9271 203.86 23.67V16.67C205.251 17.6639 206.92 18.1956 208.63 18.19V14.79C208.294 14.7914 207.959 14.7579 207.63 14.69H207.59Z" fill="#000201"/>
</svg>
