<svg width="30" height="30" viewBox="0 0 30 30" fill="none" xmlns="http://www.w3.org/2000/svg">
<path d="M26.1499 2.975C24.7466 2.66071 23.313 2.50142 21.8749 2.5C20.5168 2.41377 19.155 2.59687 17.8679 3.03878C16.5807 3.4807 15.3937 4.1727 14.3749 5.075C13.0332 6.41666 11.7041 7.75416 10.3874 9.0875C8.87492 8.925 5.28742 8.8375 2.88742 11.2625C2.6546 11.4967 2.52393 11.8135 2.52393 12.1437C2.52393 12.474 2.6546 12.7908 2.88742 13.025L17.0124 27.175C17.2466 27.4078 17.5634 27.5385 17.8937 27.5385C18.2239 27.5385 18.5407 27.4078 18.7749 27.175C21.2124 24.675 21.1374 21.15 20.9874 19.675L24.9999 15.675C28.9874 11.6875 27.1749 4.2 27.0999 3.8875C27.0422 3.66204 26.9227 3.45717 26.7549 3.29596C26.587 3.13474 26.3775 3.02358 26.1499 2.975ZM23.1999 13.9125L18.7499 18.3375C18.6058 18.483 18.4997 18.6617 18.4408 18.8579C18.382 19.0541 18.3722 19.2617 18.4124 19.4625C18.6824 21.1348 18.4474 22.8496 17.7374 24.3875L5.64992 12.275C7.21223 11.556 8.95868 11.3377 10.6499 11.65C10.85 11.6761 11.0534 11.6533 11.2428 11.5836C11.4322 11.514 11.6019 11.3995 11.7374 11.25C11.7374 11.25 13.4874 9.4375 16.1249 6.8C17.7467 5.49764 19.8 4.85487 21.8749 5C22.8509 5.00483 23.8249 5.08844 24.7874 5.25C25.0874 7.0375 25.5624 11.55 23.1999 13.9125Z" fill="#23292E"/>
<path d="M19.6626 12.875C21.0433 12.875 22.1626 11.7557 22.1626 10.375C22.1626 8.99429 21.0433 7.875 19.6626 7.875C18.2819 7.875 17.1626 8.99429 17.1626 10.375C17.1626 11.7557 18.2819 12.875 19.6626 12.875Z" fill="#23292E"/>
<path d="M6.25 20C3.75 21.25 3.75 26.25 3.75 26.25C6.06384 26.184 8.27894 25.2979 10 23.75L6.25 20Z" fill="#23292E"/>
</svg>
