<svg width="200" height="50" viewBox="0 0 200 50" fill="none" xmlns="http://www.w3.org/2000/svg">
<circle cx="25" cy="25" r="25" fill="#FEE3CB"/>
<path d="M17.9829 20.197C19.1913 20.197 20.1709 19.2174 20.1709 18.009C20.1709 16.8006 19.1913 15.821 17.9829 15.821C16.7745 15.821 15.7949 16.8006 15.7949 18.009C15.7949 19.2174 16.7745 20.197 17.9829 20.197Z" fill="#23292E"/>
<path d="M22.2367 21.855V33.994H26.0057V27.991C26.0057 26.407 26.3037 24.873 28.2677 24.873C30.2047 24.873 30.2287 26.684 30.2287 28.091V33.995H33.9997V27.338C33.9997 24.068 33.2957 21.555 29.4737 21.555C27.6387 21.555 26.4087 22.562 25.9057 23.515H25.8547V21.855H22.2367ZM16.0947 21.855H19.8697V33.994H16.0947V21.855Z" fill="#23292E"/>
<circle cx="100" cy="25" r="25" fill="#F8F8F8"/>
<path d="M101.397 33.997V25.801H104.162L104.573 22.592H101.397V20.548C101.397 19.622 101.655 18.988 102.984 18.988H104.668V16.127C103.849 16.0392 103.025 15.9968 102.201 16C99.757 16 98.079 17.492 98.079 20.231V22.586H95.332V25.795H98.085V33.997H101.397Z" fill="#000201"/>
<circle cx="175" cy="25" r="25" fill="#F8F8F8"/>
<path d="M182.633 20.997C182.646 21.172 182.646 21.346 182.646 21.52C182.646 26.845 178.593 32.981 171.186 32.981C168.904 32.981 166.784 32.32 165 31.172C165.324 31.209 165.636 31.222 165.973 31.222C167.786 31.2264 169.548 30.6201 170.974 29.501C170.133 29.4858 169.319 29.2084 168.643 28.7077C167.968 28.207 167.466 27.5079 167.207 26.708C167.456 26.745 167.706 26.77 167.968 26.77C168.329 26.77 168.692 26.72 169.029 26.633C168.117 26.4488 167.296 25.9543 166.708 25.2337C166.119 24.513 165.798 23.6106 165.799 22.68V22.63C166.336 22.929 166.959 23.116 167.619 23.141C167.066 22.7736 166.613 22.275 166.299 21.6898C165.986 21.1045 165.822 20.4508 165.823 19.787C165.823 19.039 166.022 18.353 166.371 17.755C167.383 19 168.646 20.0185 170.076 20.7446C171.507 21.4707 173.075 21.8882 174.677 21.97C174.615 21.67 174.577 21.359 174.577 21.047C174.577 20.5179 174.681 19.994 174.883 19.5052C175.085 19.0164 175.382 18.5723 175.756 18.1982C176.13 17.8241 176.574 17.5274 177.063 17.3251C177.552 17.1227 178.076 17.0187 178.605 17.019C179.765 17.019 180.812 17.505 181.548 18.291C182.45 18.1166 183.315 17.7874 184.104 17.318C183.803 18.2488 183.174 19.0381 182.333 19.538C183.133 19.4468 183.914 19.2364 184.652 18.914C184.101 19.7171 183.419 20.4213 182.633 20.997Z" fill="#000201"/>
</svg>
