<svg width="30" height="30" viewBox="0 0 30 30" fill="none" xmlns="http://www.w3.org/2000/svg">
<path d="M15 2.5C11.5538 2.5 8.75 5.30375 8.75 8.75V11.25H7.5C6.12125 11.25 5 12.3713 5 13.75V25C5 26.3787 6.12125 27.5 7.5 27.5H22.5C23.8787 27.5 25 26.3787 25 25V13.75C25 12.3713 23.8787 11.25 22.5 11.25H21.25V8.75C21.25 5.30375 18.4462 2.5 15 2.5ZM11.25 8.75C11.25 6.6825 12.9325 5 15 5C17.0675 5 18.75 6.6825 18.75 8.75V11.25H11.25V8.75ZM22.5025 25H16.25V22.1525C16.9937 21.7188 17.5 20.9212 17.5 20C17.5 18.6213 16.3787 17.5 15 17.5C13.6213 17.5 12.5 18.6213 12.5 20C12.5 20.92 13.0063 21.7188 13.75 22.1525V25H7.5V13.75H22.5L22.5025 25Z" fill="#23292E"/>
</svg>
