<svg width="125" height="27" viewBox="0 0 125 27" fill="none" xmlns="http://www.w3.org/2000/svg">
<path d="M0 0.382934H9.00003C14.7447 0.382934 18.383 4.97871 18.383 11.2979C18.383 14.7447 17.234 17.8085 14.9361 19.7234C13.4043 21.0638 11.2978 21.8298 8.61701 21.8298H0V0.382934ZM8.32978 18.0958C12.4468 18.0958 13.9787 15.6064 13.9787 11.3936C13.9787 7.18088 12.1596 4.21275 8.42553 4.21275H4.30851V18.1915H8.32978V18.0958ZM19.0532 14.1703C19.0532 9.57448 22.3085 6.03189 27.0957 6.03189C31.883 6.03189 35.1383 9.57448 35.1383 14.1703C35.1383 18.7659 31.883 22.3085 27.0957 22.3085C22.3085 22.3085 19.0532 18.6702 19.0532 14.1703ZM30.9255 14.1703C30.9255 11.2021 29.4894 9.09574 27 9.09574C24.5106 9.09574 23.0745 11.1064 23.0745 14.1703C23.0745 17.234 24.4149 19.149 27 19.149C29.5851 19.149 30.9255 17.1383 30.9255 14.1703ZM35.9042 14.1703C35.9042 9.57448 38.8724 6.03189 43.5638 6.03189C47.5851 6.03189 49.9787 8.32978 50.5532 11.6809H46.5319C46.2447 10.3404 45.1915 9.28726 43.7553 9.28726C41.266 9.28726 40.0213 11.2021 40.0213 14.1703C40.0213 17.0426 41.1702 19.0532 43.6596 19.0532C45.2872 19.0532 46.4362 18.1915 46.7234 16.468H50.7446C50.4574 19.7234 47.9681 22.3085 43.8511 22.3085C38.9681 22.2128 35.9042 18.6702 35.9042 14.1703ZM61.4681 21.8298V20.0106H61.3723C60.3191 21.4468 59.1702 22.2128 56.968 22.2128C53.5213 22.2128 51.6064 20.0106 51.6064 16.6596V6.41492H55.6276V15.9894C55.6276 17.8085 56.3936 18.7659 58.2127 18.7659C60.1276 18.7659 61.2766 17.3298 61.2766 15.3191V6.41492H65.3936V21.7341H61.4681V21.8298ZM85.2127 0.478738H89.3298V4.30855H85.2127V0.478738ZM85.2127 6.41492H89.3298V21.7341H85.2127V6.41492ZM90.9574 22.2128H94.9787C95.2655 23.1702 96.2235 23.9362 98.0428 23.9362C100.341 23.9362 101.489 22.7873 101.489 20.7766V19.0532H101.394C100.532 20.1063 99.2876 20.8723 97.3724 20.8723C93.9257 20.8723 90.5745 18.1915 90.5745 13.5C90.5745 8.90423 93.3513 6.03189 97.1806 6.03189C99.0958 6.03189 100.532 6.79786 101.394 8.04255H101.489V6.41492H105.415V20.5851C105.415 22.7873 104.744 24.2234 103.595 25.2766C102.351 26.5213 100.341 27 98.0428 27C94.0216 27 91.4361 25.2766 90.9574 22.2128ZM101.776 13.4043C101.776 11.2021 100.531 9.28726 98.1387 9.28726C96.0317 9.28726 94.691 10.9149 94.691 13.5C94.691 16.0851 96.0317 17.617 98.1387 17.617C100.723 17.617 101.776 15.7021 101.776 13.4043ZM111.255 8.52129C112.404 6.89366 113.841 6.03189 115.851 6.03189C119.011 6.03189 121.117 8.42549 121.117 11.7766V21.8298H117V12.4468C117 10.8192 116.042 9.67019 114.319 9.67019C112.5 9.67019 111.159 11.1064 111.159 13.2128V21.9255H107.234V6.60634H111.255V8.52129ZM75.9255 8.90423C72.7659 8.23407 71.3298 7.65953 71.3298 5.93618C71.3298 4.40426 72.8616 3.44678 75.1595 3.44678C77.2659 3.44678 78.8936 4.40426 79.2766 6.41492H83.4893C83.0107 2.29789 79.9468 0 75.1595 0C70.3723 0 66.9256 2.20208 66.9256 6.41492C66.9256 10.9149 70.468 11.8724 74.2979 12.734C77.5531 13.5 79.5638 13.8829 79.5638 15.9894C79.5638 18 77.6489 18.7659 75.4467 18.7659C72.383 18.7659 70.9468 17.7127 70.6596 15.1276H66.4468C66.6383 19.6277 69.8936 22.2128 75.7341 22.2128C80.5213 22.2128 84.0639 19.8191 84.0639 15.4149C83.968 10.9149 80.3298 9.8617 75.9255 8.90423ZM122.84 9.28726C121.979 9.28726 121.213 8.52129 121.213 7.65953C121.213 6.79786 121.979 6.03189 122.84 6.03189C123.702 6.03189 124.468 6.79786 124.468 7.65953C124.468 8.52129 123.702 9.28726 122.84 9.28726ZM122.84 6.31912C122.075 6.31912 121.5 6.89366 121.5 7.65953C121.5 8.42549 122.075 9.00003 122.84 9.00003C123.606 9.00003 124.181 8.42549 124.181 7.65953C124.181 6.89366 123.606 6.31912 122.84 6.31912Z" fill="#F8F8F8"/>
<path d="M122.267 6.79823H122.842C123.034 6.79823 123.224 6.79823 123.32 6.89394C123.416 6.98965 123.512 7.08545 123.512 7.27687C123.512 7.56419 123.32 7.6599 123.224 7.75561L123.608 8.42586H123.224L122.938 7.85141H122.555V8.42586H122.267V6.79823ZM122.555 7.08545V7.56419H122.842C122.938 7.56419 123.129 7.56419 123.129 7.27687C123.129 7.27687 123.129 7.08545 123.034 7.08545H122.555Z" fill="#F8F8F8"/>
</svg>
